<svg width="25" height="27" viewBox="0 0 25 27" fill="none" xmlns="http://www.w3.org/2000/svg">
<path d="M12.3333 15.5714H17.1905M4.23809 1H20.4286C21.2874 1 22.111 1.34116 22.7182 1.94842C23.3255 2.55568 23.6667 3.3793 23.6667 4.2381V17.1905C23.6667 18.0493 23.3255 18.8729 22.7182 19.4802C22.111 20.0874 21.2874 20.4286 20.4286 20.4286H4.23809C3.3793 20.4286 2.55568 20.0874 1.94842 19.4802C1.34116 18.8729 1 18.0493 1 17.1905V4.2381C1 3.3793 1.34116 2.55568 1.94842 1.94842C2.55568 1.34116 3.3793 1 4.23809 1Z" stroke="#3C308C" stroke-linecap="round" stroke-linejoin="round"/>
<path d="M5.33325 14.1904L8.57135 10.9523L5.33325 7.71423" stroke="#3C308C" stroke-linecap="round" stroke-linejoin="round"/>
<path d="M0.27 26V22.88H2.255V23.29H0.745V24.17H1.99V24.585H0.745V25.59H2.245V26H0.27ZM2.84 26V25.605H3.5V23.05H2.87V22.655H4.005V25.605H4.66V26H2.84ZM5.45 26V25.605H6.025V24.08H5.475V23.685H6.525V25.605H7.05V26H5.45ZM6.245 23.27C6.155 23.27 6.07833 23.24 6.015 23.18C5.955 23.1167 5.925 23.0433 5.925 22.96C5.925 22.87 5.955 22.795 6.015 22.735C6.075 22.675 6.15167 22.645 6.245 22.645C6.33167 22.645 6.40667 22.6767 6.47 22.74C6.53667 22.8033 6.57 22.8767 6.57 22.96C6.57 23.0433 6.53667 23.1167 6.47 23.18C6.40667 23.24 6.33167 23.27 6.245 23.27ZM8.995 26.045C8.85833 26.045 8.74 26.0233 8.64 25.98C8.54333 25.9333 8.465 25.86 8.405 25.76C8.34833 25.66 8.30833 25.53 8.285 25.37C8.26167 25.21 8.25333 25.015 8.26 24.785L8.325 23.125L8.835 23.06L8.885 23.055L8.89 23.1C8.87333 23.1233 8.85833 23.1467 8.845 23.17C8.835 23.1933 8.82667 23.2333 8.82 23.29L8.77 23.935L8.79 23.99L8.755 24.785C8.745 25.0117 8.75167 25.1883 8.775 25.315C8.79833 25.4383 8.83833 25.525 8.895 25.575C8.95167 25.6217 9.02 25.645 9.1 25.645C9.20667 25.645 9.30167 25.6233 9.385 25.58C9.47167 25.5367 9.55667 25.4833 9.64 25.42L9.75 25.79C9.63667 25.8733 9.51833 25.9367 9.395 25.98C9.27167 26.0233 9.13833 26.045 8.995 26.045ZM7.81 23.685H9.555L9.55 24.085H7.81V23.685ZM12.705 22.885H13.21L14.355 25.025L14.335 22.885H14.78H14.83V22.93C14.81 22.95 14.7967 22.9717 14.79 22.995C14.7867 23.0183 14.785 23.0583 14.785 23.115V26H14.345L13.155 23.73V26H12.705V22.885ZM16.355 26.055C16.1883 26.055 16.035 26.0283 15.895 25.975C15.755 25.9217 15.6333 25.845 15.53 25.745C15.43 25.6417 15.3517 25.515 15.295 25.365C15.2383 25.215 15.21 25.045 15.21 24.855C15.21 24.6617 15.2383 24.49 15.295 24.34C15.3517 24.1867 15.4283 24.0583 15.525 23.955C15.625 23.8517 15.74 23.7717 15.87 23.715C16.0033 23.6583 16.145 23.63 16.295 23.63C16.425 23.63 16.5483 23.6533 16.665 23.7C16.785 23.7467 16.8883 23.8167 16.975 23.91C17.065 24 17.135 24.115 17.185 24.255C17.2383 24.395 17.265 24.5583 17.265 24.745C17.265 24.7783 17.265 24.8167 17.265 24.86C17.265 24.9 17.2633 24.935 17.26 24.965H15.69C15.6967 25.085 15.72 25.19 15.76 25.28C15.8 25.3667 15.85 25.4383 15.91 25.495C15.9733 25.5517 16.045 25.5933 16.125 25.62C16.205 25.6467 16.2883 25.66 16.375 25.66C16.4517 25.66 16.5217 25.6533 16.585 25.64C16.6517 25.6233 16.715 25.5983 16.775 25.565C16.835 25.5317 16.89 25.4867 16.94 25.43L17.2 25.685C17.13 25.7683 17.0517 25.8383 16.965 25.895C16.8783 25.9483 16.7833 25.9883 16.68 26.015C16.58 26.0417 16.4717 26.055 16.355 26.055ZM15.7 24.59H16.78C16.78 24.4967 16.7683 24.415 16.745 24.345C16.7217 24.275 16.6867 24.215 16.64 24.165C16.5967 24.115 16.5433 24.0783 16.48 24.055C16.4167 24.0283 16.3467 24.015 16.27 24.015C16.1967 24.015 16.1283 24.0267 16.065 24.05C16.005 24.0733 15.95 24.1083 15.9 24.155C15.85 24.2017 15.8067 24.2617 15.77 24.335C15.7367 24.405 15.7133 24.49 15.7 24.59ZM17.67 26L18.475 24.84L17.685 23.685H18.215L18.745 24.45L19.245 23.685H19.75L19.01 24.815L19.845 26H19.305L18.74 25.21L18.215 26H17.67ZM21.075 26.055C20.9817 26.055 20.8933 26.0417 20.81 26.015C20.73 25.9917 20.6567 25.9533 20.59 25.9C20.5233 25.8467 20.465 25.78 20.415 25.7C20.3683 25.62 20.3317 25.5233 20.305 25.41C20.2817 25.2967 20.27 25.1683 20.27 25.025L20.275 23.685H20.765V25.025C20.765 25.1417 20.775 25.2417 20.795 25.325C20.8183 25.405 20.8483 25.47 20.885 25.52C20.925 25.57 20.97 25.6067 21.02 25.63C21.07 25.65 21.1233 25.66 21.18 25.66C21.2533 25.66 21.3217 25.6467 21.385 25.62C21.4483 25.5933 21.5033 25.5533 21.55 25.5C21.6 25.4433 21.6367 25.3733 21.66 25.29C21.6867 25.2033 21.7 25.1033 21.7 24.99V23.685H22.2V25.635C22.2 25.7017 22.2017 25.765 22.205 25.825C22.2117 25.8817 22.2267 25.94 22.25 26H21.785C21.7683 25.9633 21.7567 25.9283 21.75 25.895C21.7433 25.8583 21.7383 25.8233 21.735 25.79C21.735 25.7533 21.735 25.7167 21.735 25.68C21.7017 25.7433 21.66 25.7983 21.61 25.845C21.5633 25.8917 21.51 25.9317 21.45 25.965C21.3933 25.995 21.3333 26.0167 21.27 26.03C21.21 26.0467 21.145 26.055 21.075 26.055ZM22.665 26V23.685H23.09V23.875C23.1267 23.8217 23.1667 23.7783 23.21 23.745C23.2567 23.7083 23.305 23.68 23.355 23.66C23.4083 23.64 23.4617 23.63 23.515 23.63C23.575 23.63 23.6317 23.6417 23.685 23.665C23.7383 23.6883 23.785 23.7217 23.825 23.765C23.865 23.8083 23.895 23.865 23.915 23.935C23.9483 23.8683 23.9883 23.8133 24.035 23.77C24.085 23.7267 24.1417 23.6933 24.205 23.67C24.2717 23.6433 24.3417 23.63 24.415 23.63C24.495 23.63 24.5633 23.6467 24.62 23.68C24.68 23.71 24.7283 23.7533 24.765 23.81C24.805 23.8633 24.8333 23.93 24.85 24.01C24.87 24.0867 24.8783 24.1733 24.875 24.27V26H24.44V24.4C24.44 24.2833 24.4333 24.1967 24.42 24.14C24.4067 24.0833 24.3867 24.045 24.36 24.025C24.3367 24.005 24.3083 23.995 24.275 23.995C24.225 23.995 24.1767 24.0183 24.13 24.065C24.0867 24.1083 24.05 24.1683 24.02 24.245C23.9933 24.3217 23.98 24.4067 23.98 24.5V26H23.56V24.42C23.56 24.2467 23.545 24.1317 23.515 24.075C23.4883 24.0183 23.44 23.99 23.37 23.99C23.3367 23.99 23.3033 24.0017 23.27 24.025C23.24 24.045 23.2117 24.0767 23.185 24.12C23.1583 24.16 23.1367 24.21 23.12 24.27C23.1067 24.33 23.1 24.4 23.1 24.48V26H22.665Z" fill="#3C308C"/>
</svg>
