<svg width="292" height="62" viewBox="0 0 292 62" fill="none" xmlns="http://www.w3.org/2000/svg">
<path d="M2.70312 45.4667V14.5163H22.5758V18.5835H7.45855V27.3131H19.9228V31.4299H7.45855V41.3995H22.4757V45.4667H2.70312ZM28.4325 45.4667V41.5483H35.04V16.2027H28.7328V12.2843H40.0958V41.5483H46.6533V45.4667H28.4325ZM54.5623 45.4667V41.5483H60.3189V26.4203H54.8126V22.5019H65.3246V41.5483H70.5806V45.4667H54.5623ZM62.5214 18.3851C61.6204 18.3851 60.8528 18.0875 60.2188 17.4923C59.6181 16.864 59.3178 16.1365 59.3178 15.3099C59.3178 14.4171 59.6181 13.6731 60.2188 13.0779C60.8195 12.4827 61.587 12.1851 62.5214 12.1851C63.3891 12.1851 64.1399 12.4992 64.774 13.1275C65.4414 13.7557 65.7751 14.4832 65.7751 15.3099C65.7751 16.1365 65.4414 16.864 64.774 17.4923C64.1399 18.0875 63.3891 18.3851 62.5214 18.3851ZM90.0528 45.9131C88.6846 45.9131 87.4999 45.6981 86.4988 45.2683C85.531 44.8053 84.7468 44.0779 84.1461 43.0859C83.5788 42.0939 83.1783 40.8043 82.9447 39.2171C82.7111 37.6299 82.6277 35.6955 82.6944 33.4139L83.3452 16.9467L88.451 16.3019L88.9516 16.2523L89.0016 16.6987C88.8348 16.9301 88.6846 17.1616 88.5511 17.3931C88.451 17.6245 88.3676 18.0213 88.3008 18.5835L87.8003 24.9819L88.0005 25.5275L87.6501 33.4139C87.55 35.6624 87.6167 37.4149 87.8503 38.6715C88.0839 39.8949 88.4844 40.7547 89.0517 41.2507C89.619 41.7136 90.3031 41.9451 91.104 41.9451C92.1719 41.9451 93.123 41.7301 93.9573 41.3003C94.825 40.8704 95.6759 40.3413 96.5102 39.7131L97.6115 43.3835C96.4768 44.2101 95.2922 44.8384 94.0574 45.2683C92.8227 45.6981 91.4878 45.9131 90.0528 45.9131ZM78.1893 22.5019H95.6592L95.6092 26.4699H78.1893V22.5019Z" fill="#252525"/>
<path d="M168.909 14.5659H173.965L185.428 35.7947L185.228 14.5659H189.683H190.184V15.0123C189.983 15.2107 189.85 15.4257 189.783 15.6571C189.75 15.8886 189.733 16.2854 189.733 16.8475V45.4667H185.328L173.415 22.9483V45.4667H168.909V14.5659ZM205.451 46.0123C203.783 46.0123 202.247 45.7478 200.846 45.2187C199.444 44.6897 198.226 43.9291 197.192 42.9371C196.191 41.9121 195.406 40.6555 194.839 39.1675C194.272 37.6795 193.988 35.9931 193.988 34.1083C193.988 32.1905 194.272 30.4875 194.839 28.9995C195.406 27.4785 196.174 26.2054 197.142 25.1803C198.143 24.1553 199.294 23.3617 200.596 22.7995C201.93 22.2374 203.349 21.9563 204.85 21.9563C206.152 21.9563 207.387 22.1878 208.555 22.6507C209.756 23.1137 210.791 23.8081 211.658 24.7339C212.559 25.6267 213.26 26.7675 213.761 28.1563C214.295 29.5451 214.562 31.1654 214.562 33.0171C214.562 33.3478 214.562 33.7281 214.562 34.1579C214.562 34.5547 214.545 34.9019 214.511 35.1995H198.794C198.86 36.3899 199.094 37.4315 199.494 38.3243C199.895 39.1841 200.395 39.895 200.996 40.4571C201.63 41.0193 202.348 41.4326 203.149 41.6971C203.949 41.9617 204.784 42.0939 205.651 42.0939C206.419 42.0939 207.12 42.0278 207.754 41.8955C208.421 41.7302 209.055 41.4822 209.656 41.1515C210.257 40.8209 210.807 40.3745 211.308 39.8123L213.911 42.3419C213.21 43.1686 212.426 43.863 211.558 44.4251C210.69 44.9542 209.739 45.351 208.705 45.6155C207.704 45.8801 206.619 46.0123 205.451 46.0123ZM198.894 31.4795H209.706C209.706 30.5537 209.589 29.7435 209.356 29.0491C209.122 28.3547 208.772 27.7595 208.304 27.2635C207.871 26.7675 207.337 26.4038 206.703 26.1723C206.069 25.9078 205.368 25.7755 204.6 25.7755C203.866 25.7755 203.182 25.8913 202.548 26.1227C201.947 26.3542 201.397 26.7014 200.896 27.1643C200.395 27.6273 199.962 28.2225 199.594 28.9499C199.261 29.6443 199.027 30.4875 198.894 31.4795ZM218.616 45.4667L226.675 33.9595L218.766 22.5019H224.072L229.378 30.0907L234.384 22.5019H239.44L232.031 33.7115L240.391 45.4667H234.985L229.328 37.6299L224.072 45.4667H218.616ZM252.705 46.0123C251.771 46.0123 250.886 45.8801 250.052 45.6155C249.251 45.3841 248.517 45.0038 247.85 44.4747C247.182 43.9457 246.598 43.2843 246.098 42.4907C245.63 41.6971 245.263 40.7382 244.996 39.6139C244.763 38.4897 244.646 37.2166 244.646 35.7947L244.696 22.5019H249.602V35.7947C249.602 36.9521 249.702 37.9441 249.902 38.7707C250.135 39.5643 250.436 40.2091 250.803 40.7051C251.203 41.2011 251.654 41.5649 252.154 41.7963C252.655 41.9947 253.189 42.0939 253.756 42.0939C254.49 42.0939 255.175 41.9617 255.809 41.6971C256.443 41.4326 256.993 41.0358 257.461 40.5067C257.961 39.9446 258.328 39.2502 258.562 38.4235C258.829 37.5638 258.962 36.5718 258.962 35.4475V22.5019H263.968V41.8459C263.968 42.5073 263.985 43.1355 264.018 43.7307C264.085 44.2929 264.235 44.8715 264.469 45.4667H259.813C259.646 45.103 259.53 44.7558 259.463 44.4251C259.396 44.0614 259.346 43.7142 259.313 43.3835C259.313 43.0198 259.313 42.6561 259.313 42.2923C258.979 42.9206 258.562 43.4662 258.061 43.9291C257.594 44.3921 257.06 44.7889 256.459 45.1195C255.892 45.4171 255.291 45.6321 254.657 45.7643C254.057 45.9297 253.406 46.0123 252.705 46.0123ZM268.623 45.4667V22.5019H272.878V24.3867C273.245 23.8577 273.646 23.4278 274.079 23.0971C274.547 22.7334 275.031 22.4523 275.531 22.2539C276.065 22.0555 276.599 21.9563 277.133 21.9563C277.734 21.9563 278.301 22.0721 278.835 22.3035C279.369 22.535 279.836 22.8657 280.237 23.2955C280.637 23.7254 280.937 24.2875 281.138 24.9819C281.471 24.3206 281.872 23.775 282.339 23.3451C282.839 22.9153 283.407 22.5846 284.041 22.3531C284.708 22.0886 285.409 21.9563 286.143 21.9563C286.944 21.9563 287.628 22.1217 288.196 22.4523C288.796 22.7499 289.28 23.1798 289.647 23.7419C290.048 24.271 290.331 24.9323 290.498 25.7259C290.698 26.4865 290.782 27.3462 290.748 28.3051V45.4667H286.394V29.5947C286.394 28.4374 286.327 27.5777 286.193 27.0155C286.06 26.4534 285.86 26.0731 285.593 25.8747C285.359 25.6763 285.075 25.5771 284.742 25.5771C284.241 25.5771 283.757 25.8086 283.29 26.2715C282.856 26.7014 282.489 27.2966 282.189 28.0571C281.922 28.8177 281.788 29.6609 281.788 30.5867V45.4667H277.583V29.7931C277.583 28.0737 277.433 26.9329 277.133 26.3707C276.866 25.8086 276.382 25.5275 275.681 25.5275C275.348 25.5275 275.014 25.6433 274.68 25.8747C274.38 26.0731 274.096 26.3873 273.829 26.8171C273.562 27.2139 273.345 27.7099 273.178 28.3051C273.045 28.9003 272.978 29.5947 272.978 30.3883V45.4667H268.623Z" fill="#252525"/>
<path d="M131.4 39.8571H140.339M116.502 13.2856H146.298C147.879 13.2856 149.394 13.9078 150.512 15.0151C151.629 16.1225 152.257 17.6244 152.257 19.1904V42.8093C152.257 44.3754 151.629 45.8775 150.512 46.9848C149.394 48.0921 147.879 48.7142 146.298 48.7142H116.502C114.922 48.7142 113.406 48.0921 112.288 46.9848C111.171 45.8775 110.543 44.3754 110.543 42.8093V19.1904C110.543 17.6244 111.171 16.1225 112.288 15.0151C113.406 13.9078 114.922 13.2856 116.502 13.2856Z" stroke="#3C308C" stroke-width="5" stroke-linecap="round" stroke-linejoin="round"/>
<path d="M119.482 36.9047L125.441 31L119.482 25.0952" stroke="#3C308C" stroke-width="5" stroke-linecap="round" stroke-linejoin="round"/>
</svg>
